HIERARCHY
ROOT Hips
{
	OFFSET 0.000000 0.000000 0.000000 
	CHANNELS 6 Xposition Yposition Zposition Zrotation Yrotation Xrotation
	JOINT LeftUpLeg
	{
		OFFSET 1.363060 -1.794630 0.839290 
		CHANNELS 3 Zrotation Yrotation Xrotation
		JOINT LeftLeg
		{
			OFFSET 2.448110 -6.726130 0.000000 
			CHANNELS 3 Zrotation Yrotation Xrotation
			JOINT LeftFoot
			{
				OFFSET 2.562200 -7.039590 0.000000 
				CHANNELS 3 Zrotation Yrotation Xrotation
				JOINT LeftToeBase
				{
					OFFSET 0.157640 -0.433110 2.322550 
					CHANNELS 3 Zrotation Yrotation Xrotation
					End Site
					{
						OFFSET 0.000000 0.000000 0.000000 
					}
				}
			}
		}
	}
	JOINT RightUpLeg
	{
		OFFSET -1.305520 -1.794630 0.839290 
		CHANNELS 3 Zrotation Yrotation Xrotation
		JOINT RightLeg
		{
			OFFSET -2.542530 -6.985550 0.000000 
			CHANNELS 3 Zrotation Yrotation Xrotation
			JOINT RightFoot
			{
				OFFSET -2.568260 -7.056230 0.000000 
				CHANNELS 3 Zrotation Yrotation Xrotation
				JOINT RightToeBase
				{
					OFFSET -0.164730 -0.452590 2.363150 
					CHANNELS 3 Zrotation Yrotation Xrotation
					End Site
					{
						OFFSET 0.000000 0.000000 0.000000 
					}
				}
			}
		}
	}
	JOINT Spine
	{
		OFFSET 0.028270 2.035590 -0.193380 
		CHANNELS 3 Zrotation Yrotation Xrotation
		JOINT Spine1
		{
			OFFSET 0.056720 2.048850 -0.042750 
			CHANNELS 3 Zrotation Yrotation Xrotation
			JOINT Neck1
			{
				OFFSET -0.054170 1.746240 0.172020 
				CHANNELS 3 Zrotation Yrotation Xrotation
				JOINT Head
				{
					OFFSET 0.104070 1.761360 -0.123970 
					CHANNELS 3 Zrotation Yrotation Xrotation
					End Site
					{
						OFFSET 0.000000 0.000000 0.000000 
					}
				}
			}
			JOINT LeftArm
			{
				OFFSET 3.362410 1.200890 -0.311210 
				CHANNELS 3 Zrotation Yrotation Xrotation
				JOINT LeftForeArm
				{
					OFFSET 4.983000 -0.000000 -0.000000 
					CHANNELS 3 Zrotation Yrotation Xrotation
					JOINT LeftHand
					{
						OFFSET 3.483560 -0.000000 -0.000000 
						CHANNELS 3 Zrotation Yrotation Xrotation
						JOINT LeftHandIndex1
						{
							OFFSET 0.715260 -0.000000 -0.000000 
							CHANNELS 3 Zrotation Yrotation Xrotation
							End Site
							{
								OFFSET 0.000000 0.000000 0.000000 
							}
						}
					}
				}
			}
			JOINT RightArm
			{
				OFFSET -3.136600 1.374050 -0.404650 
				CHANNELS 3 Zrotation Yrotation Xrotation
				JOINT RightForeArm
				{
					OFFSET -5.241900 -0.000000 -0.000000 
					CHANNELS 3 Zrotation Yrotation Xrotation
					JOINT RightHand
					{
						OFFSET -3.444170 -0.000000 -0.000000 
						CHANNELS 3 Zrotation Yrotation Xrotation
						JOINT RightHandIndex1
						{
							OFFSET -0.622530 -0.000000 -0.000000 
							CHANNELS 3 Zrotation Yrotation Xrotation
							End Site
							{
								OFFSET 0.000000 0.000000 0.000000 
							}
						}
					}
				}
			}
		}
	}
}
MOTION
Frames: 18
Frame Time: 0.041667
-6.427886 17.790353 0.082211 8.612385 80.721804 21.933632 -22.308916 1.546925 -24.423268 0.175023 5.083063 15.967145 -0.256255 2.561414 -0.571422 0.160200 2.579000 7.108600 19.051850 1.880234 -20.277014 -10.583586 -16.696259 62.274510 1.274799 -11.249086 0.192434 -1.813900 -8.467100 24.142100 0.022699 3.045775 -4.905968 -6.076212 1.126461 1.735344 2.489125 -0.557865 21.361021 -0.957800 0.499200 8.931200 -74.062664 -3.662129 17.083441 11.699748 -20.675787 -5.892233 -3.293762 -1.135668 -3.380354 -7.125000 0.000000 0.000000 88.989915 -3.444242 19.883754 -14.527080 29.634140 -4.316716 -1.164254 -2.371524 27.985848 7.125000 0.000000 0.000000 
-6.268276 17.800590 0.054261 6.914394 81.056391 20.134294 -22.003822 1.686534 -23.637038 0.147007 4.999718 15.729861 -0.179446 2.229710 -1.000130 0.207700 2.934600 8.096800 19.578236 2.183003 -21.880621 -10.764450 -16.901957 62.990494 1.353052 -11.549735 -0.959086 -1.876300 -8.603500 24.562700 0.145236 2.730453 -4.863557 -6.021942 0.981660 1.876286 2.416072 -0.467323 21.412589 -0.973900 0.537000 8.937600 -73.734776 -4.756828 17.092730 11.501812 -20.411541 -5.856257 -3.328915 -1.150636 -3.288300 -7.125000 0.000000 0.000000 88.795325 -2.876142 19.179511 -14.441640 29.481309 -4.331470 -1.169565 -2.365546 28.180289 7.125000 0.000000 0.000000 
-6.115629 17.811750 0.026516 8.362737 81.560266 21.391636 -22.208075 1.765033 -22.724379 0.139403 4.875270 15.507490 -0.079495 1.759796 -1.414878 0.225800 3.058400 8.441400 19.586546 2.536859 -23.426734 -10.780458 -17.070643 63.184296 1.379016 -11.486645 -2.493972 -1.670500 -8.143200 23.149800 0.202975 2.351586 -4.872234 -5.934877 0.772064 1.767126 2.364390 -0.452995 21.638219 -0.989200 0.553000 9.036600 -73.391610 -5.681378 17.104777 11.367831 -20.216860 -5.839193 -3.359587 -1.175121 -3.361359 -7.125000 0.000000 0.000000 88.707174 -2.545248 18.622774 -14.499403 29.465328 -4.367041 -1.168439 -2.365346 28.166359 7.125000 0.000000 0.000000 
-5.961548 17.828642 -0.011159 12.300946 82.116888 25.193495 -22.848503 1.737847 -21.744147 0.139362 4.701834 15.247789 0.008027 1.327539 -1.838235 0.211700 2.962500 8.174400 19.145988 2.909314 -24.957414 -10.607336 -17.191110 62.776949 1.357779 -11.199834 -4.229184 -1.240400 -7.062300 19.900000 0.196642 1.938797 -4.885820 -5.933951 0.520244 1.702885 2.477483 -0.403167 21.856069 -0.918200 0.591400 9.123400 -73.080188 -6.526707 17.103409 11.364083 -20.150552 -5.869395 -3.379532 -1.217598 -3.669821 -7.125000 0.000000 0.000000 88.597405 -2.366295 18.433637 -14.685403 29.582706 -4.422611 -1.159984 -2.372227 27.828782 7.125000 0.000000 0.000000 
-5.807569 17.833761 -0.035526 11.692688 82.570852 24.334237 -22.642457 1.770626 -20.721514 0.109828 4.582334 14.950861 0.051033 1.159570 -2.229718 0.183100 2.755900 7.599800 19.524002 3.566745 -25.905476 -10.264981 -17.106082 61.737423 1.363220 -11.142855 -6.123349 -0.758800 -5.563000 15.521700 0.290330 1.608084 -4.797009 -5.893588 0.360027 1.916230 2.733698 -0.315084 21.983185 -0.761000 0.636500 9.205000 -72.805228 -7.609650 17.188633 11.492314 -20.205044 -5.953627 -3.393689 -1.281902 -4.307997 -7.125000 0.000000 0.000000 88.305231 -1.986765 18.499311 -14.862661 29.686836 -4.485629 -1.158102 -2.377016 27.466596 7.125000 0.000000 0.000000 
-5.660450 17.839392 -0.060097 11.666724 82.961460 24.121691 -22.583972 1.848304 -19.841976 0.091335 4.484370 14.730146 0.095973 0.986364 -2.627307 0.162100 2.593700 7.149500 19.738671 4.401283 -26.930089 -9.836331 -16.985780 60.414583 1.384010 -11.300674 -7.866613 -0.490500 -4.490400 12.460500 0.373568 1.301814 -4.724963 -5.810431 0.205480 2.072296 2.561722 -0.163786 21.732126 -0.863500 0.697900 9.089500 -72.608470 -8.590608 17.377388 11.823398 -20.467491 -6.097833 -3.393246 -1.359664 -5.229609 -7.125000 0.000000 0.000000 87.985421 -1.682844 18.812869 -15.125690 29.870630 -4.570470 -1.134749 -2.407385 26.938616 7.125000 0.000000 0.000000 
-5.514457 17.844511 -0.085077 13.417449 83.340419 25.794547 -22.818313 1.898212 -19.058426 0.082920 4.366514 14.517942 0.143683 0.779217 -2.949795 0.157300 2.555700 7.044200 19.594836 5.331223 -28.093191 -9.320583 -16.839903 58.806383 1.397507 -11.491924 -9.311317 -0.385800 -3.988700 11.044900 0.416285 1.016516 -4.718977 -5.706626 0.043677 2.077320 2.618393 -0.128950 21.873273 -0.826900 0.721700 9.169900 -72.463803 -9.252665 17.859190 12.367091 -20.961682 -6.293014 -3.371523 -1.457584 -6.544817 -7.125000 0.000000 0.000000 87.713735 -1.588549 19.164347 -15.416367 30.080609 -4.641655 -1.103882 -2.433212 26.467545 7.125000 0.000000 0.000000 
-5.367134 17.840723 -0.101253 13.331024 83.735363 25.633379 -22.715240 1.989696 -18.368905 0.070401 4.294554 14.357178 0.180340 0.644159 -3.238404 0.114400 2.181100 6.006300 19.734928 6.386692 -28.989476 -8.692378 -16.545971 56.744029 1.430983 -11.781726 -10.294450 -0.370600 -3.910100 10.823900 0.489099 0.779093 -4.716348 -5.620237 -0.075092 2.052196 2.614605 -0.131737 21.883963 -0.824600 0.718000 9.190400 -72.322670 -9.836690 18.572644 13.028007 -21.568689 -6.504975 -3.338084 -1.566642 -8.134356 -7.125000 0.000000 0.000000 87.437447 -1.531602 19.373566 -15.607820 30.199007 -4.681570 -1.099866 -2.426262 26.334395 7.125000 0.000000 0.000000 
-5.221550 17.836628 -0.117020 13.605971 84.138536 25.894232 -22.668068 2.076130 -17.776561 0.062401 4.251217 14.281244 0.188925 0.656710 -3.629637 0.061500 1.600100 4.401800 19.776320 7.460991 -29.867599 -7.989312 -16.170653 54.377461 1.462015 -12.052447 -11.070431 -0.378800 -3.952700 10.943700 0.537482 0.577846 -4.721757 -5.604536 -0.179158 2.011536 2.525518 -0.110674 21.528728 -0.885300 0.711400 9.011700 -72.210496 -10.423115 19.222474 13.765580 -22.232881 -6.741450 -3.299143 -1.668249 -9.664463 -7.125000 0.000000 0.000000 87.282656 -1.577035 19.494016 -15.836775 30.371506 -4.745002 -1.086755 -2.438176 26.258040 7.125000 0.000000 0.000000 
-5.077298 17.831509 -0.131967 14.542912 84.548045 26.787761 -22.692494 2.086200 -17.127537 0.058809 4.214560 14.244809 0.144688 0.877481 -3.860832 0.002300 0.311400 0.855500 19.677476 8.501541 -30.632739 -7.247789 -15.720968 51.810395 1.445026 -12.078632 -11.849074 -0.367100 -3.891700 10.772300 0.563259 0.388673 -4.706539 -5.617684 -0.282838 2.042069 2.819259 -0.104159 21.627438 -0.728600 0.725500 9.077200 -72.073559 -11.006059 19.939510 14.622430 -23.017148 -7.059285 -3.245384 -1.791039 -11.369774 -7.125000 0.000000 0.000000 87.151813 -1.594280 19.642501 -16.058978 30.545644 -4.805961 -1.052942 -2.468206 25.926125 7.125000 0.000000 0.000000 
-4.931407 17.823728 -0.145072 16.868445 85.032038 29.058188 -22.814147 2.088113 -16.463341 0.068290 4.183918 14.264934 0.150570 0.887305 -4.197147 0.015400 -0.802100 -2.204300 19.408959 9.414892 -31.288597 -6.477273 -15.192667 49.038666 1.395270 -11.886665 -12.279210 -0.373500 -3.925500 10.867200 0.590375 0.163474 -4.679017 -5.587473 -0.415121 2.105844 2.679915 -0.094903 21.398735 -0.817600 0.718900 8.976200 -71.957396 -11.549558 20.786737 15.561561 -23.886314 -7.425226 -3.179008 -1.919952 -13.310977 -7.125000 0.000000 0.000000 86.957613 -1.568798 19.710493 -16.172160 30.608815 -4.834218 -1.035447 -2.476533 25.573263 7.125000 0.000000 0.000000 
-4.781114 17.811136 -0.155309 17.369632 85.494829 29.367102 -22.622836 2.215994 -15.742387 0.077270 4.186841 14.316764 0.362032 0.197279 -5.432713 0.054200 1.501700 4.130400 19.400299 10.270812 -31.561249 -5.693928 -14.521619 46.040400 1.365575 -11.726352 -12.324232 -0.354100 -3.823000 10.579100 0.634621 -0.003963 -4.633271 -5.606524 -0.500807 2.153593 2.788845 -0.122923 21.509401 -0.764800 0.715000 9.052300 -71.851033 -12.083929 21.637689 16.513026 -24.740389 -7.781413 -3.114958 -2.029701 -15.157967 -7.125000 0.000000 0.000000 86.857356 -1.533223 19.397047 -16.158385 30.561565 -4.832125 -1.043317 -2.459273 25.698884 7.125000 0.000000 0.000000 
-4.627750 17.802229 -0.162271 19.895244 86.024368 31.776715 -22.624867 2.284927 -15.078281 0.104218 4.202247 14.458324 0.434088 -0.037025 -5.847431 0.023200 0.983300 2.702900 19.166016 11.093366 -31.871609 -4.907468 -13.793718 42.905261 1.357057 -11.643926 -12.151231 -0.323800 -3.657600 10.115300 0.649143 -0.168948 -4.578217 -5.643703 -0.601238 2.288742 2.606439 -0.164959 21.314376 -0.871800 0.681200 8.962700 -71.702584 -12.640654 22.467322 17.504757 -25.625197 -8.180377 -3.043233 -2.142389 -16.872481 -7.125000 0.000000 0.000000 86.827189 -1.445199 18.840301 -15.994899 30.388926 -4.799679 -1.064066 -2.432861 26.050349 7.125000 0.000000 0.000000 
-4.470188 17.791991 -0.166674 23.667885 86.611257 35.486432 -22.664160 2.268274 -14.443826 0.138769 4.229544 14.655745 0.489450 -0.210966 -6.185999 0.011300 0.686600 1.886700 18.841133 11.859394 -32.129023 -4.133697 -12.987264 39.637347 1.360839 -11.583403 -11.713416 -0.300400 -3.524000 9.741300 0.661320 -0.345508 -4.536523 -5.652792 -0.712045 2.441230 2.595991 -0.269741 21.285144 -0.878300 0.626200 8.939800 -71.619742 -13.104365 23.228492 18.526857 -26.534326 -8.610987 -2.966476 -2.240909 -18.446045 -7.125000 0.000000 0.000000 86.765325 -1.496592 18.367759 -15.849461 30.238543 -4.776948 -1.081918 -2.413090 26.191365 7.125000 0.000000 0.000000 
-4.308122 17.778169 -0.170359 28.569613 87.206776 40.274976 -22.716396 2.305353 -13.747641 0.174851 4.252218 14.852019 0.553646 -0.399485 -6.595032 0.001800 0.273300 0.750900 18.485520 12.518100 -32.249081 -3.407368 -12.110376 36.313983 1.386331 -11.565187 -10.693143 -0.263600 -3.302800 9.122800 0.670549 -0.498923 -4.506788 -5.650744 -0.811497 2.530604 2.740144 -0.370661 21.309345 -0.803500 0.581900 8.926600 -71.644647 -13.504052 23.934647 19.474464 -27.358947 -9.002130 -2.901796 -2.308044 -19.814981 -7.125000 0.000000 0.000000 86.689550 -1.734283 17.906653 -15.779230 30.147257 -4.766734 -1.083724 -2.402496 26.303343 7.125000 0.000000 0.000000 
-4.142370 17.761584 -0.171690 34.272302 87.796144 45.874818 -22.737329 2.401963 -13.072204 0.211057 4.278361 15.044863 0.634429 -0.638796 -7.040667 -0.000000 -0.041700 -0.114600 18.147632 13.158826 -32.309931 -2.756550 -11.185057 33.018651 1.417238 -11.554578 -8.963031 -0.224800 -3.052100 8.423900 0.675599 -0.616983 -4.455613 -5.663770 -0.887923 2.707744 2.803963 -0.459121 21.344020 -0.757100 0.534400 8.941400 -71.673123 -14.051728 24.612077 20.325461 -28.078440 -9.371635 -2.842070 -2.373910 -21.159833 -7.125000 0.000000 0.000000 86.577777 -1.900186 17.380357 -15.644260 29.989958 -4.736478 -1.083767 -2.388176 26.466336 7.125000 0.000000 0.000000 
-3.972420 17.743156 -0.171076 41.079944 88.363068 52.635280 -22.756724 2.478068 -12.448226 0.244160 4.308970 15.228737 0.711074 -0.850972 -7.485614 0.002600 -0.329900 -0.906400 17.792312 13.812115 -32.316063 -2.168434 -10.203397 29.711967 1.424098 -11.508531 -7.040114 -0.156800 -2.551600 7.032600 0.676138 -0.722508 -4.406745 -5.706090 -0.950423 2.931072 2.772257 -0.564302 21.436293 -0.752100 0.475100 8.992400 -71.665186 -14.601751 25.235739 21.151953 -28.772554 -9.755802 -2.770925 -2.451882 -22.570513 -7.125000 0.000000 0.000000 86.451396 -2.027481 16.842544 -15.435138 29.764910 -4.677807 -1.084249 -2.366121 26.632670 7.125000 0.000000 0.000000 
-3.792232 17.718585 -0.156333 48.083242 88.899860 59.558597 -22.598085 2.662700 -11.874175 0.270040 4.364709 15.430541 0.762928 -0.924580 -7.988561 0.025500 -1.029900 -2.831200 17.496426 14.722664 -31.970714 -1.603076 -9.103794 26.252731 1.469881 -11.779638 -5.778059 -0.096200 -2.000100 5.506000 0.699797 -0.781713 -4.375580 -5.659738 -0.976970 3.094050 2.645602 -0.667327 21.450327 -0.815200 0.421600 8.962000 -71.702217 -14.919821 25.912677 22.038562 -29.532808 -10.163788 -2.690651 -2.521921 -24.021439 -7.125000 0.000000 0.000000 86.376029 -2.267758 16.100025 -15.141569 29.458473 -4.598710 -1.094718 -2.332433 27.118702 7.125000 0.000000 0.000000 
